<mxfile host="app.diagrams.net" agent="Mozilla/5.0 (Macintosh; Intel Mac OS X 10_15_7) AppleWebKit/537.36 (KHTML, like Gecko) Chrome/131.0.0.0 Safari/537.36" version="26.0.5">
  <diagram name="Page-1" id="zjo0tRsgxgB2ME6z2J11">
    <mxGraphModel dx="962" dy="544" grid="1" gridSize="10" guides="1" tooltips="1" connect="1" arrows="1" fold="1" page="1" pageScale="1" pageWidth="850" pageHeight="1100" math="0" shadow="0">
      <root>
        <mxCell id="0" />
        <mxCell id="1" parent="0" />
        <mxCell id="HxeO4VEjhagr6qRDo7I1-1" value="" style="rounded=0;whiteSpace=wrap;html=1;" vertex="1" parent="1">
          <mxGeometry x="80" y="50" width="400" height="240" as="geometry" />
        </mxCell>
        <mxCell id="HxeO4VEjhagr6qRDo7I1-2" value="" style="rounded=0;whiteSpace=wrap;html=1;" vertex="1" parent="1">
          <mxGeometry x="80" y="50" width="400" height="30" as="geometry" />
        </mxCell>
        <mxCell id="HxeO4VEjhagr6qRDo7I1-3" value="FastRecipe" style="text;html=1;align=center;verticalAlign=middle;whiteSpace=wrap;rounded=0;" vertex="1" parent="1">
          <mxGeometry x="90" y="50" width="60" height="30" as="geometry" />
        </mxCell>
        <mxCell id="HxeO4VEjhagr6qRDo7I1-4" value="Home" style="text;html=1;align=center;verticalAlign=middle;whiteSpace=wrap;rounded=0;" vertex="1" parent="1">
          <mxGeometry x="240" y="50" width="60" height="30" as="geometry" />
        </mxCell>
        <mxCell id="HxeO4VEjhagr6qRDo7I1-5" value="Saved" style="text;html=1;align=center;verticalAlign=middle;whiteSpace=wrap;rounded=0;" vertex="1" parent="1">
          <mxGeometry x="300" y="50" width="60" height="30" as="geometry" />
        </mxCell>
        <mxCell id="HxeO4VEjhagr6qRDo7I1-6" value="Login" style="text;html=1;align=center;verticalAlign=middle;whiteSpace=wrap;rounded=0;" vertex="1" parent="1">
          <mxGeometry x="360" y="50" width="60" height="30" as="geometry" />
        </mxCell>
        <mxCell id="HxeO4VEjhagr6qRDo7I1-9" value="Register" style="text;html=1;align=center;verticalAlign=middle;whiteSpace=wrap;rounded=0;" vertex="1" parent="1">
          <mxGeometry x="420" y="50" width="60" height="30" as="geometry" />
        </mxCell>
        <mxCell id="HxeO4VEjhagr6qRDo7I1-12" value="" style="rounded=1;whiteSpace=wrap;html=1;" vertex="1" parent="1">
          <mxGeometry x="175" y="124" width="250" height="20" as="geometry" />
        </mxCell>
        <mxCell id="HxeO4VEjhagr6qRDo7I1-25" style="edgeStyle=orthogonalEdgeStyle;rounded=0;orthogonalLoop=1;jettySize=auto;html=1;exitX=1;exitY=0.5;exitDx=0;exitDy=0;" edge="1" parent="1" source="HxeO4VEjhagr6qRDo7I1-13" target="HxeO4VEjhagr6qRDo7I1-19">
          <mxGeometry relative="1" as="geometry" />
        </mxCell>
        <mxCell id="HxeO4VEjhagr6qRDo7I1-13" value="Search" style="rounded=1;whiteSpace=wrap;html=1;" vertex="1" parent="1">
          <mxGeometry x="375" y="124" width="50" height="20" as="geometry" />
        </mxCell>
        <mxCell id="HxeO4VEjhagr6qRDo7I1-14" value="Search for Recipes. Instantly." style="text;html=1;align=center;verticalAlign=middle;whiteSpace=wrap;rounded=0;" vertex="1" parent="1">
          <mxGeometry x="220" y="90" width="160" height="30" as="geometry" />
        </mxCell>
        <mxCell id="HxeO4VEjhagr6qRDo7I1-15" value="Filter" style="rounded=0;whiteSpace=wrap;html=1;" vertex="1" parent="1">
          <mxGeometry x="80" y="80" width="50" height="210" as="geometry" />
        </mxCell>
        <mxCell id="HxeO4VEjhagr6qRDo7I1-17" value="" style="rounded=0;whiteSpace=wrap;html=1;" vertex="1" parent="1">
          <mxGeometry x="670" y="50" width="250" height="320" as="geometry" />
        </mxCell>
        <mxCell id="HxeO4VEjhagr6qRDo7I1-18" value="Server" style="rounded=0;whiteSpace=wrap;html=1;" vertex="1" parent="1">
          <mxGeometry x="713.75" y="60" width="162.5" height="30" as="geometry" />
        </mxCell>
        <mxCell id="HxeO4VEjhagr6qRDo7I1-19" value="Get Recipes" style="rounded=0;whiteSpace=wrap;html=1;" vertex="1" parent="1">
          <mxGeometry x="752.5" y="110" width="85" height="30" as="geometry" />
        </mxCell>
        <mxCell id="HxeO4VEjhagr6qRDo7I1-20" value="Get One Recipe" style="rounded=0;whiteSpace=wrap;html=1;" vertex="1" parent="1">
          <mxGeometry x="747.5" y="155" width="95" height="30" as="geometry" />
        </mxCell>
        <mxCell id="HxeO4VEjhagr6qRDo7I1-21" value="Save Recipe" style="rounded=0;whiteSpace=wrap;html=1;" vertex="1" parent="1">
          <mxGeometry x="747.5" y="200" width="95" height="30" as="geometry" />
        </mxCell>
        <mxCell id="HxeO4VEjhagr6qRDo7I1-22" value="Get Saved Recipes" style="rounded=0;whiteSpace=wrap;html=1;" vertex="1" parent="1">
          <mxGeometry x="738.75" y="245" width="112.5" height="30" as="geometry" />
        </mxCell>
        <mxCell id="HxeO4VEjhagr6qRDo7I1-24" value="Delete Saved Recipe" style="rounded=0;whiteSpace=wrap;html=1;" vertex="1" parent="1">
          <mxGeometry x="734.38" y="290" width="121.25" height="30" as="geometry" />
        </mxCell>
        <mxCell id="HxeO4VEjhagr6qRDo7I1-26" value="GET" style="text;html=1;align=center;verticalAlign=middle;resizable=0;points=[];autosize=1;strokeColor=none;fillColor=none;" vertex="1" parent="1">
          <mxGeometry x="560" y="100" width="50" height="30" as="geometry" />
        </mxCell>
        <mxCell id="HxeO4VEjhagr6qRDo7I1-27" value="Database (PostgreSQL)" style="shape=cylinder3;whiteSpace=wrap;html=1;boundedLbl=1;backgroundOutline=1;size=15;" vertex="1" parent="1">
          <mxGeometry x="705.01" y="420" width="180" height="210" as="geometry" />
        </mxCell>
        <mxCell id="HxeO4VEjhagr6qRDo7I1-28" value="" style="endArrow=classic;html=1;rounded=0;" edge="1" parent="1">
          <mxGeometry width="50" height="50" relative="1" as="geometry">
            <mxPoint x="752.5" y="440" as="sourcePoint" />
            <mxPoint x="764" y="350" as="targetPoint" />
          </mxGeometry>
        </mxCell>
        <mxCell id="HxeO4VEjhagr6qRDo7I1-30" value="" style="endArrow=classic;html=1;rounded=0;" edge="1" parent="1">
          <mxGeometry width="50" height="50" relative="1" as="geometry">
            <mxPoint x="830" y="350" as="sourcePoint" />
            <mxPoint x="820" y="440" as="targetPoint" />
          </mxGeometry>
        </mxCell>
        <mxCell id="HxeO4VEjhagr6qRDo7I1-31" value="" style="rounded=0;whiteSpace=wrap;html=1;" vertex="1" parent="1">
          <mxGeometry x="80" y="320" width="400" height="240" as="geometry" />
        </mxCell>
        <mxCell id="HxeO4VEjhagr6qRDo7I1-32" value="" style="rounded=0;whiteSpace=wrap;html=1;" vertex="1" parent="1">
          <mxGeometry x="80" y="320" width="400" height="30" as="geometry" />
        </mxCell>
        <mxCell id="HxeO4VEjhagr6qRDo7I1-33" value="FastRecipe" style="text;html=1;align=center;verticalAlign=middle;whiteSpace=wrap;rounded=0;" vertex="1" parent="1">
          <mxGeometry x="90" y="320" width="60" height="30" as="geometry" />
        </mxCell>
        <mxCell id="HxeO4VEjhagr6qRDo7I1-34" value="Home" style="text;html=1;align=center;verticalAlign=middle;whiteSpace=wrap;rounded=0;" vertex="1" parent="1">
          <mxGeometry x="240" y="320" width="60" height="30" as="geometry" />
        </mxCell>
        <mxCell id="HxeO4VEjhagr6qRDo7I1-35" value="Saved" style="text;html=1;align=center;verticalAlign=middle;whiteSpace=wrap;rounded=0;" vertex="1" parent="1">
          <mxGeometry x="300" y="320" width="60" height="30" as="geometry" />
        </mxCell>
        <mxCell id="HxeO4VEjhagr6qRDo7I1-36" value="Login" style="text;html=1;align=center;verticalAlign=middle;whiteSpace=wrap;rounded=0;" vertex="1" parent="1">
          <mxGeometry x="360" y="320" width="60" height="30" as="geometry" />
        </mxCell>
        <mxCell id="HxeO4VEjhagr6qRDo7I1-37" value="Register" style="text;html=1;align=center;verticalAlign=middle;whiteSpace=wrap;rounded=0;" vertex="1" parent="1">
          <mxGeometry x="420" y="320" width="60" height="30" as="geometry" />
        </mxCell>
        <mxCell id="HxeO4VEjhagr6qRDo7I1-38" value="" style="rounded=1;whiteSpace=wrap;html=1;" vertex="1" parent="1">
          <mxGeometry x="175" y="405" width="250" height="26" as="geometry" />
        </mxCell>
        <mxCell id="HxeO4VEjhagr6qRDo7I1-40" value="See Y&lt;span style=&quot;background-color: transparent; color: light-dark(rgb(0, 0, 0), rgb(255, 255, 255));&quot;&gt;our Saved Recipes.&lt;/span&gt;" style="text;html=1;align=center;verticalAlign=middle;whiteSpace=wrap;rounded=0;" vertex="1" parent="1">
          <mxGeometry x="220" y="364" width="160" height="30" as="geometry" />
        </mxCell>
        <mxCell id="HxeO4VEjhagr6qRDo7I1-41" value="Filter" style="rounded=0;whiteSpace=wrap;html=1;" vertex="1" parent="1">
          <mxGeometry x="80" y="350" width="50" height="210" as="geometry" />
        </mxCell>
        <mxCell id="HxeO4VEjhagr6qRDo7I1-42" value="" style="rounded=1;whiteSpace=wrap;html=1;" vertex="1" parent="1">
          <mxGeometry x="175" y="431" width="250" height="26" as="geometry" />
        </mxCell>
        <mxCell id="HxeO4VEjhagr6qRDo7I1-43" value="" style="rounded=1;whiteSpace=wrap;html=1;" vertex="1" parent="1">
          <mxGeometry x="175" y="457" width="250" height="26" as="geometry" />
        </mxCell>
        <mxCell id="HxeO4VEjhagr6qRDo7I1-44" value="" style="rounded=1;whiteSpace=wrap;html=1;" vertex="1" parent="1">
          <mxGeometry x="175" y="483" width="250" height="26" as="geometry" />
        </mxCell>
        <mxCell id="HxeO4VEjhagr6qRDo7I1-45" value="" style="rounded=1;whiteSpace=wrap;html=1;" vertex="1" parent="1">
          <mxGeometry x="175" y="509" width="250" height="26" as="geometry" />
        </mxCell>
        <mxCell id="HxeO4VEjhagr6qRDo7I1-52" style="edgeStyle=orthogonalEdgeStyle;rounded=0;orthogonalLoop=1;jettySize=auto;html=1;exitX=1;exitY=0.5;exitDx=0;exitDy=0;entryX=0;entryY=0.5;entryDx=0;entryDy=0;" edge="1" parent="1" source="HxeO4VEjhagr6qRDo7I1-46" target="HxeO4VEjhagr6qRDo7I1-24">
          <mxGeometry relative="1" as="geometry" />
        </mxCell>
        <mxCell id="HxeO4VEjhagr6qRDo7I1-46" value="Delete" style="rounded=1;whiteSpace=wrap;html=1;" vertex="1" parent="1">
          <mxGeometry x="370" y="405" width="55" height="25" as="geometry" />
        </mxCell>
        <mxCell id="HxeO4VEjhagr6qRDo7I1-47" value="Delete" style="rounded=1;whiteSpace=wrap;html=1;" vertex="1" parent="1">
          <mxGeometry x="370" y="432" width="55" height="25" as="geometry" />
        </mxCell>
        <mxCell id="HxeO4VEjhagr6qRDo7I1-48" value="Delete" style="rounded=1;whiteSpace=wrap;html=1;" vertex="1" parent="1">
          <mxGeometry x="370" y="457" width="55" height="25" as="geometry" />
        </mxCell>
        <mxCell id="HxeO4VEjhagr6qRDo7I1-49" value="Delete" style="rounded=1;whiteSpace=wrap;html=1;" vertex="1" parent="1">
          <mxGeometry x="370" y="482" width="55" height="25" as="geometry" />
        </mxCell>
        <mxCell id="HxeO4VEjhagr6qRDo7I1-51" value="Delete" style="rounded=1;whiteSpace=wrap;html=1;" vertex="1" parent="1">
          <mxGeometry x="370" y="509" width="55" height="25" as="geometry" />
        </mxCell>
        <mxCell id="HxeO4VEjhagr6qRDo7I1-53" value="DELETE" style="text;html=1;align=center;verticalAlign=middle;resizable=0;points=[];autosize=1;strokeColor=none;fillColor=none;" vertex="1" parent="1">
          <mxGeometry x="510" y="390" width="70" height="30" as="geometry" />
        </mxCell>
        <mxCell id="HxeO4VEjhagr6qRDo7I1-55" value="GET" style="text;html=1;align=center;verticalAlign=middle;resizable=0;points=[];autosize=1;strokeColor=none;fillColor=none;" vertex="1" parent="1">
          <mxGeometry x="541" y="230" width="50" height="30" as="geometry" />
        </mxCell>
        <mxCell id="HxeO4VEjhagr6qRDo7I1-57" value="View" style="rounded=1;whiteSpace=wrap;html=1;" vertex="1" parent="1">
          <mxGeometry x="330" y="405" width="40" height="25" as="geometry" />
        </mxCell>
        <mxCell id="HxeO4VEjhagr6qRDo7I1-58" value="View" style="rounded=1;whiteSpace=wrap;html=1;" vertex="1" parent="1">
          <mxGeometry x="330" y="430" width="40" height="29" as="geometry" />
        </mxCell>
        <mxCell id="HxeO4VEjhagr6qRDo7I1-59" value="View" style="rounded=1;whiteSpace=wrap;html=1;" vertex="1" parent="1">
          <mxGeometry x="330" y="458" width="40" height="25" as="geometry" />
        </mxCell>
        <mxCell id="HxeO4VEjhagr6qRDo7I1-60" value="View" style="rounded=1;whiteSpace=wrap;html=1;" vertex="1" parent="1">
          <mxGeometry x="330" y="483" width="40" height="25" as="geometry" />
        </mxCell>
        <mxCell id="HxeO4VEjhagr6qRDo7I1-61" value="View" style="rounded=1;whiteSpace=wrap;html=1;" vertex="1" parent="1">
          <mxGeometry x="330" y="509.5" width="40" height="25" as="geometry" />
        </mxCell>
        <mxCell id="HxeO4VEjhagr6qRDo7I1-65" value="" style="rounded=1;whiteSpace=wrap;html=1;" vertex="1" parent="1">
          <mxGeometry x="175" y="165" width="250" height="26" as="geometry" />
        </mxCell>
        <mxCell id="HxeO4VEjhagr6qRDo7I1-66" value="" style="rounded=1;whiteSpace=wrap;html=1;" vertex="1" parent="1">
          <mxGeometry x="175" y="191" width="250" height="26" as="geometry" />
        </mxCell>
        <mxCell id="HxeO4VEjhagr6qRDo7I1-67" value="" style="rounded=1;whiteSpace=wrap;html=1;" vertex="1" parent="1">
          <mxGeometry x="175" y="217" width="250" height="26" as="geometry" />
        </mxCell>
        <mxCell id="HxeO4VEjhagr6qRDo7I1-82" style="edgeStyle=orthogonalEdgeStyle;rounded=0;orthogonalLoop=1;jettySize=auto;html=1;exitX=1;exitY=0.5;exitDx=0;exitDy=0;entryX=0;entryY=0.5;entryDx=0;entryDy=0;" edge="1" parent="1" source="HxeO4VEjhagr6qRDo7I1-68" target="HxeO4VEjhagr6qRDo7I1-24">
          <mxGeometry relative="1" as="geometry" />
        </mxCell>
        <mxCell id="HxeO4VEjhagr6qRDo7I1-68" value="" style="rounded=1;whiteSpace=wrap;html=1;" vertex="1" parent="1">
          <mxGeometry x="175" y="243" width="250" height="26" as="geometry" />
        </mxCell>
        <mxCell id="HxeO4VEjhagr6qRDo7I1-90" style="edgeStyle=orthogonalEdgeStyle;rounded=0;orthogonalLoop=1;jettySize=auto;html=1;entryX=0;entryY=0.5;entryDx=0;entryDy=0;" edge="1" parent="1" source="HxeO4VEjhagr6qRDo7I1-70" target="HxeO4VEjhagr6qRDo7I1-21">
          <mxGeometry relative="1" as="geometry" />
        </mxCell>
        <mxCell id="HxeO4VEjhagr6qRDo7I1-70" value="Save" style="rounded=1;whiteSpace=wrap;html=1;" vertex="1" parent="1">
          <mxGeometry x="370" y="165" width="55" height="25" as="geometry" />
        </mxCell>
        <mxCell id="HxeO4VEjhagr6qRDo7I1-71" value="Save" style="rounded=1;whiteSpace=wrap;html=1;" vertex="1" parent="1">
          <mxGeometry x="370" y="217" width="55" height="25" as="geometry" />
        </mxCell>
        <mxCell id="HxeO4VEjhagr6qRDo7I1-72" value="Save" style="rounded=1;whiteSpace=wrap;html=1;" vertex="1" parent="1">
          <mxGeometry x="370" y="243" width="55" height="25" as="geometry" />
        </mxCell>
        <mxCell id="HxeO4VEjhagr6qRDo7I1-73" value="Save" style="rounded=1;whiteSpace=wrap;html=1;" vertex="1" parent="1">
          <mxGeometry x="370" y="191" width="55" height="25" as="geometry" />
        </mxCell>
        <mxCell id="HxeO4VEjhagr6qRDo7I1-74" value="View" style="rounded=1;whiteSpace=wrap;html=1;" vertex="1" parent="1">
          <mxGeometry x="330" y="165" width="40" height="25" as="geometry" />
        </mxCell>
        <mxCell id="HxeO4VEjhagr6qRDo7I1-75" value="View" style="rounded=1;whiteSpace=wrap;html=1;" vertex="1" parent="1">
          <mxGeometry x="330" y="190" width="40" height="29" as="geometry" />
        </mxCell>
        <mxCell id="HxeO4VEjhagr6qRDo7I1-76" value="View" style="rounded=1;whiteSpace=wrap;html=1;" vertex="1" parent="1">
          <mxGeometry x="330" y="218" width="40" height="25" as="geometry" />
        </mxCell>
        <mxCell id="HxeO4VEjhagr6qRDo7I1-84" style="edgeStyle=orthogonalEdgeStyle;rounded=0;orthogonalLoop=1;jettySize=auto;html=1;exitX=0.5;exitY=1;exitDx=0;exitDy=0;entryX=0;entryY=0.5;entryDx=0;entryDy=0;" edge="1" parent="1" source="HxeO4VEjhagr6qRDo7I1-77" target="HxeO4VEjhagr6qRDo7I1-20">
          <mxGeometry relative="1" as="geometry" />
        </mxCell>
        <mxCell id="HxeO4VEjhagr6qRDo7I1-77" value="View" style="rounded=1;whiteSpace=wrap;html=1;" vertex="1" parent="1">
          <mxGeometry x="330" y="243" width="40" height="25" as="geometry" />
        </mxCell>
        <mxCell id="HxeO4VEjhagr6qRDo7I1-80" value="GET" style="text;html=1;align=center;verticalAlign=middle;resizable=0;points=[];autosize=1;strokeColor=none;fillColor=none;" vertex="1" parent="1">
          <mxGeometry x="575" y="168" width="50" height="30" as="geometry" />
        </mxCell>
        <mxCell id="HxeO4VEjhagr6qRDo7I1-83" value="DELETE" style="text;html=1;align=center;verticalAlign=middle;resizable=0;points=[];autosize=1;strokeColor=none;fillColor=none;" vertex="1" parent="1">
          <mxGeometry x="480" y="258" width="70" height="30" as="geometry" />
        </mxCell>
        <mxCell id="HxeO4VEjhagr6qRDo7I1-85" value="GET" style="text;html=1;align=center;verticalAlign=middle;resizable=0;points=[];autosize=1;strokeColor=none;fillColor=none;" vertex="1" parent="1">
          <mxGeometry x="425" y="288" width="50" height="30" as="geometry" />
        </mxCell>
        <mxCell id="HxeO4VEjhagr6qRDo7I1-87" style="edgeStyle=orthogonalEdgeStyle;rounded=0;orthogonalLoop=1;jettySize=auto;html=1;exitX=0.75;exitY=1;exitDx=0;exitDy=0;entryX=0;entryY=0.5;entryDx=0;entryDy=0;" edge="1" parent="1" source="HxeO4VEjhagr6qRDo7I1-5" target="HxeO4VEjhagr6qRDo7I1-22">
          <mxGeometry relative="1" as="geometry" />
        </mxCell>
        <mxCell id="HxeO4VEjhagr6qRDo7I1-79" style="edgeStyle=orthogonalEdgeStyle;rounded=0;orthogonalLoop=1;jettySize=auto;html=1;exitX=0.5;exitY=0;exitDx=0;exitDy=0;entryX=0;entryY=0.5;entryDx=0;entryDy=0;" edge="1" parent="1" source="HxeO4VEjhagr6qRDo7I1-57" target="HxeO4VEjhagr6qRDo7I1-20">
          <mxGeometry relative="1" as="geometry" />
        </mxCell>
        <mxCell id="HxeO4VEjhagr6qRDo7I1-91" value="POST" style="text;html=1;align=center;verticalAlign=middle;resizable=0;points=[];autosize=1;strokeColor=none;fillColor=none;" vertex="1" parent="1">
          <mxGeometry x="470" y="178" width="60" height="30" as="geometry" />
        </mxCell>
      </root>
    </mxGraphModel>
  </diagram>
</mxfile>
